  0
SECTION
  2
HEADER
  9
$ACADVER
  1
AC1009
  9
$EXTMIN
 10
0.0
 20
0.0
 30
0.0
  9
$EXTMAX
 10
1000.0
 20
1000.0
 30
0.0
  9
$FILLMODE
 70
 0
  9
$SPLFRAME
 70
 1
  0
ENDSEC
  0
SECTION
  2
TABLES
  0
TABLE
  2
LAYER
 70
1
  0
LAYER
  2
0
 70
     0
 62
     7
  6
CONTINUOUS
  0
ENDTAB
  0
ENDSEC
  0
SECTION
  2
ENTITIES
  0
LINE
  8
0
 62
     0
 10
0
 20
3.12744
 30
0.0
 11
0
 21
0.00558811
 31
0.0
  0
LINE
  8
0
 62
     0
 10
0
 20
0.00558811
 30
0.0
 11
0.00553386
 21
0.00558811
 31
0.0
  0
LINE
  8
0
 62
     0
 10
0.00553386
 20
0.00558811
 30
0.0
 11
0.00553386
 21
-0
 31
0.0
  0
LINE
  8
0
 62
     0
 10
0.00553386
 20
-0
 30
0.0
 11
0.713542
 21
-0
 31
0.0
  0
LINE
  8
0
 62
     0
 10
0.713542
 20
-0
 30
0.0
 11
0.713542
 21
1.20936
 31
0.0
  0
LINE
  8
0
 62
     0
 10
0.713542
 20
1.20936
 30
0.0
 11
1.86561
 21
1.20936
 31
0.0
  0
LINE
  8
0
 62
     0
 10
1.86561
 20
1.20936
 30
0.0
 11
1.86561
 21
1.81321
 31
0.0
  0
LINE
  8
0
 62
     0
 10
1.86561
 20
1.81321
 30
0.0
 11
0.713542
 21
1.81321
 31
0.0
  0
LINE
  8
0
 62
     0
 10
0.713542
 20
1.81321
 30
0.0
 11
0.713542
 21
2.5236
 31
0.0
  0
LINE
  8
0
 62
     0
 10
0.713542
 20
2.5236
 30
0.0
 11
2.06629
 21
2.5236
 31
0.0
  0
LINE
  8
0
 62
     0
 10
2.06629
 20
2.5236
 30
0.0
 11
2.06629
 21
3.12744
 31
0.0
  0
LINE
  8
0
 62
     0
 10
2.06629
 20
3.12744
 30
0.0
 11
0
 21
3.12744
 31
0.0
  0
LINE
  8
0
 62
     0
 10
2.70344
 20
3.12744
 30
0.0
 11
2.70344
 21
2.5236
 31
0.0
  0
LINE
  8
0
 62
     0
 10
2.70344
 20
2.5236
 30
0.0
 11
3.42985
 21
2.5236
 31
0.0
  0
LINE
  8
0
 62
     0
 10
3.42985
 20
2.5236
 30
0.0
 11
3.42985
 21
0.603842
 31
0.0
  0
LINE
  8
0
 62
     0
 10
3.42985
 20
0.603842
 30
0.0
 11
2.70344
 21
0.603842
 31
0.0
  0
LINE
  8
0
 62
     0
 10
2.70344
 20
0.603842
 30
0.0
 11
2.70344
 21
0.00558811
 31
0.0
  0
LINE
  8
0
 62
     0
 10
2.70344
 20
0.00558811
 30
0.0
 11
2.70904
 21
0.00558811
 31
0.0
  0
LINE
  8
0
 62
     0
 10
2.70904
 20
0.00558811
 30
0.0
 11
2.70904
 21
-0
 31
0.0
  0
LINE
  8
0
 62
     0
 10
2.70904
 20
-0
 30
0.0
 11
4.875
 21
-0
 31
0.0
  0
LINE
  8
0
 62
     0
 10
4.875
 20
-0
 30
0.0
 11
4.875
 21
0.603842
 31
0.0
  0
LINE
  8
0
 62
     0
 10
4.875
 20
0.603842
 30
0.0
 11
4.14828
 21
0.603842
 31
0.0
  0
LINE
  8
0
 62
     0
 10
4.14828
 20
0.603842
 30
0.0
 11
4.14828
 21
2.5236
 31
0.0
  0
LINE
  8
0
 62
     0
 10
4.14828
 20
2.5236
 30
0.0
 11
4.875
 21
2.5236
 31
0.0
  0
LINE
  8
0
 62
     0
 10
4.875
 20
2.5236
 30
0.0
 11
4.875
 21
3.12744
 31
0.0
  0
LINE
  8
0
 62
     0
 10
4.875
 20
3.12744
 30
0.0
 11
2.70344
 21
3.12744
 31
0.0
  0
LINE
  8
0
 62
     0
 10
5.36388
 20
3.12744
 30
0.0
 11
5.36388
 21
2.5236
 31
0.0
  0
LINE
  8
0
 62
     0
 10
5.36388
 20
2.5236
 30
0.0
 11
6.29585
 21
2.5236
 31
0.0
  0
LINE
  8
0
 62
     0
 10
6.29585
 20
2.5236
 30
0.0
 11
6.29585
 21
0.00558811
 31
0.0
  0
LINE
  8
0
 62
     0
 10
6.29585
 20
0.00558811
 30
0.0
 11
6.30138
 21
0.00558811
 31
0.0
  0
LINE
  8
0
 62
     0
 10
6.30138
 20
0.00558811
 30
0.0
 11
6.30138
 21
-0
 31
0.0
  0
LINE
  8
0
 62
     0
 10
6.30138
 20
-0
 30
0.0
 11
7.01421
 21
-0
 31
0.0
  0
LINE
  8
0
 62
     0
 10
7.01421
 20
-0
 30
0.0
 11
7.01421
 21
2.5236
 31
0.0
  0
LINE
  8
0
 62
     0
 10
7.01421
 20
2.5236
 30
0.0
 11
7.9465
 21
2.5236
 31
0.0
  0
LINE
  8
0
 62
     0
 10
7.9465
 20
2.5236
 30
0.0
 11
7.9465
 21
3.12744
 31
0.0
  0
LINE
  8
0
 62
     0
 10
7.9465
 20
3.12744
 30
0.0
 11
5.36388
 21
3.12744
 31
0.0
  0
LINE
  8
0
 62
     0
 10
0.011122
 20
3.11632
 30
0.0
 11
2.05524
 21
3.11632
 31
0.0
  0
LINE
  8
0
 62
     0
 10
2.05524
 20
3.11632
 30
0.0
 11
2.05524
 21
2.53472
 31
0.0
  0
LINE
  8
0
 62
     0
 10
2.05524
 20
2.53472
 30
0.0
 11
0.702419
 21
2.53472
 31
0.0
  0
LINE
  8
0
 62
     0
 10
0.702419
 20
2.53472
 30
0.0
 11
0.702419
 21
1.80208
 31
0.0
  0
LINE
  8
0
 62
     0
 10
0.702419
 20
1.80208
 30
0.0
 11
1.85449
 21
1.80208
 31
0.0
  0
LINE
  8
0
 62
     0
 10
1.85449
 20
1.80208
 30
0.0
 11
1.85449
 21
1.22049
 31
0.0
  0
LINE
  8
0
 62
     0
 10
1.85449
 20
1.22049
 30
0.0
 11
0.702419
 21
1.22049
 31
0.0
  0
LINE
  8
0
 62
     0
 10
0.702419
 20
1.22049
 30
0.0
 11
0.702419
 21
0.011122
 31
0.0
  0
LINE
  8
0
 62
     0
 10
0.702419
 20
0.011122
 30
0.0
 11
0.011122
 21
0.011122
 31
0.0
  0
LINE
  8
0
 62
     0
 10
0.011122
 20
0.011122
 30
0.0
 11
0.011122
 21
3.11632
 31
0.0
  0
LINE
  8
0
 62
     0
 10
2.71457
 20
3.11632
 30
0.0
 11
4.86388
 21
3.11632
 31
0.0
  0
LINE
  8
0
 62
     0
 10
4.86388
 20
3.11632
 30
0.0
 11
4.86388
 21
2.53472
 31
0.0
  0
LINE
  8
0
 62
     0
 10
4.86388
 20
2.53472
 30
0.0
 11
4.13715
 21
2.53472
 31
0.0
  0
LINE
  8
0
 62
     0
 10
4.13715
 20
2.53472
 30
0.0
 11
4.13715
 21
0.592719
 31
0.0
  0
LINE
  8
0
 62
     0
 10
4.13715
 20
0.592719
 30
0.0
 11
4.86388
 21
0.592719
 31
0.0
  0
LINE
  8
0
 62
     0
 10
4.86388
 20
0.592719
 30
0.0
 11
4.86388
 21
0.011122
 31
0.0
  0
LINE
  8
0
 62
     0
 10
4.86388
 20
0.011122
 30
0.0
 11
2.71457
 21
0.011122
 31
0.0
  0
LINE
  8
0
 62
     0
 10
2.71457
 20
0.011122
 30
0.0
 11
2.71457
 21
0.592719
 31
0.0
  0
LINE
  8
0
 62
     0
 10
2.71457
 20
0.592719
 30
0.0
 11
3.44097
 21
0.592719
 31
0.0
  0
LINE
  8
0
 62
     0
 10
3.44097
 20
0.592719
 30
0.0
 11
3.44097
 21
2.53472
 31
0.0
  0
LINE
  8
0
 62
     0
 10
3.44097
 20
2.53472
 30
0.0
 11
2.71457
 21
2.53472
 31
0.0
  0
LINE
  8
0
 62
     0
 10
2.71457
 20
2.53472
 30
0.0
 11
2.71457
 21
3.11632
 31
0.0
  0
LINE
  8
0
 62
     0
 10
5.375
 20
3.11632
 30
0.0
 11
7.93544
 21
3.11632
 31
0.0
  0
LINE
  8
0
 62
     0
 10
7.93544
 20
3.11632
 30
0.0
 11
7.93544
 21
2.53472
 31
0.0
  0
LINE
  8
0
 62
     0
 10
7.93544
 20
2.53472
 30
0.0
 11
7.00315
 21
2.53472
 31
0.0
  0
LINE
  8
0
 62
     0
 10
7.00315
 20
2.53472
 30
0.0
 11
7.00315
 21
0.011122
 31
0.0
  0
LINE
  8
0
 62
     0
 10
7.00315
 20
0.011122
 30
0.0
 11
6.30697
 21
0.011122
 31
0.0
  0
LINE
  8
0
 62
     0
 10
6.30697
 20
0.011122
 30
0.0
 11
6.30697
 21
2.53472
 31
0.0
  0
LINE
  8
0
 62
     0
 10
6.30697
 20
2.53472
 30
0.0
 11
5.375
 21
2.53472
 31
0.0
  0
LINE
  8
0
 62
     0
 10
5.375
 20
2.53472
 30
0.0
 11
5.375
 21
3.11632
 31
0.0
  0
ENDSEC
  0
EOF
