  0
SECTION
  2
HEADER
  9
$ACADVER
  1
AC1009
  9
$EXTMIN
 10
0.0
 20
0.0
 30
0.0
  9
$EXTMAX
 10
1000.0
 20
1000.0
 30
0.0
  9
$FILLMODE
 70
 0
  9
$SPLFRAME
 70
 1
  0
ENDSEC
  0
SECTION
  2
TABLES
  0
TABLE
  2
LAYER
 70
1
  0
LAYER
  2
0
 70
     0
 62
     7
  6
CONTINUOUS
  0
ENDTAB
  0
ENDSEC
  0
SECTION
  2
ENTITIES
  0
LINE
  8
0
 62
     0
 10
0
 20
3.15419
 30
0.0
 11
0
 21
0.0145942
 31
0.0
  0
LINE
  8
0
 62
     0
 10
0
 20
0.0145942
 30
0.0
 11
0.0145942
 21
0.0145942
 31
0.0
  0
LINE
  8
0
 62
     0
 10
0.0145942
 20
0.0145942
 30
0.0
 11
0.0145942
 21
-5.42535e-05
 31
0.0
  0
LINE
  8
0
 62
     0
 10
0.0145942
 20
-5.42535e-05
 30
0.0
 11
0.733669
 21
-5.42535e-05
 31
0.0
  0
LINE
  8
0
 62
     0
 10
0.733669
 20
-5.42535e-05
 30
0.0
 11
0.733669
 21
1.21289
 31
0.0
  0
LINE
  8
0
 62
     0
 10
0.733669
 20
1.21289
 30
0.0
 11
1.88889
 21
1.21289
 31
0.0
  0
LINE
  8
0
 62
     0
 10
1.88889
 20
1.21289
 30
0.0
 11
1.88889
 21
1.83615
 31
0.0
  0
LINE
  8
0
 62
     0
 10
1.88889
 20
1.83615
 30
0.0
 11
0.733669
 21
1.83615
 31
0.0
  0
LINE
  8
0
 62
     0
 10
0.733669
 20
1.83615
 30
0.0
 11
0.733669
 21
2.53093
 31
0.0
  0
LINE
  8
0
 62
     0
 10
0.733669
 20
2.53093
 30
0.0
 11
2.09028
 21
2.53093
 31
0.0
  0
LINE
  8
0
 62
     0
 10
2.09028
 20
2.53093
 30
0.0
 11
2.09028
 21
3.15419
 31
0.0
  0
LINE
  8
0
 62
     0
 10
2.09028
 20
3.15419
 30
0.0
 11
0
 21
3.15419
 31
0.0
  0
LINE
  8
0
 62
     0
 10
2.7111
 20
3.15419
 30
0.0
 11
2.7111
 21
2.53093
 31
0.0
  0
LINE
  8
0
 62
     0
 10
2.7111
 20
2.53093
 30
0.0
 11
3.43994
 21
2.53093
 31
0.0
  0
LINE
  8
0
 62
     0
 10
3.43994
 20
2.53093
 30
0.0
 11
3.43994
 21
0.62321
 31
0.0
  0
LINE
  8
0
 62
     0
 10
3.43994
 20
0.62321
 30
0.0
 11
2.7111
 21
0.62321
 31
0.0
  0
LINE
  8
0
 62
     0
 10
2.7111
 20
0.62321
 30
0.0
 11
2.7111
 21
0.0145942
 31
0.0
  0
LINE
  8
0
 62
     0
 10
2.7111
 20
0.0145942
 30
0.0
 11
2.72569
 21
0.0145942
 31
0.0
  0
LINE
  8
0
 62
     0
 10
2.72569
 20
0.0145942
 30
0.0
 11
2.72569
 21
-5.42535e-05
 31
0.0
  0
LINE
  8
0
 62
     0
 10
2.72569
 20
-5.42535e-05
 30
0.0
 11
4.90657
 21
-5.42535e-05
 31
0.0
  0
LINE
  8
0
 62
     0
 10
4.90657
 20
-5.42535e-05
 30
0.0
 11
4.90657
 21
0.62321
 31
0.0
  0
LINE
  8
0
 62
     0
 10
4.90657
 20
0.62321
 30
0.0
 11
4.17811
 21
0.62321
 31
0.0
  0
LINE
  8
0
 62
     0
 10
4.17811
 20
0.62321
 30
0.0
 11
4.17811
 21
2.53093
 31
0.0
  0
LINE
  8
0
 62
     0
 10
4.17811
 20
2.53093
 30
0.0
 11
4.90657
 21
2.53093
 31
0.0
  0
LINE
  8
0
 62
     0
 10
4.90657
 20
2.53093
 30
0.0
 11
4.90657
 21
3.15419
 31
0.0
  0
LINE
  8
0
 62
     0
 10
4.90657
 20
3.15419
 30
0.0
 11
2.7111
 21
3.15419
 31
0.0
  0
LINE
  8
0
 62
     0
 10
5.37918
 20
3.15419
 30
0.0
 11
5.37918
 21
2.53093
 31
0.0
  0
LINE
  8
0
 62
     0
 10
5.37918
 20
2.53093
 30
0.0
 11
6.31392
 21
2.53093
 31
0.0
  0
LINE
  8
0
 62
     0
 10
6.31392
 20
2.53093
 30
0.0
 11
6.31392
 21
0.0145942
 31
0.0
  0
LINE
  8
0
 62
     0
 10
6.31392
 20
0.0145942
 30
0.0
 11
6.32844
 21
0.0145942
 31
0.0
  0
LINE
  8
0
 62
     0
 10
6.32844
 20
0.0145942
 30
0.0
 11
6.32844
 21
-5.42535e-05
 31
0.0
  0
LINE
  8
0
 62
     0
 10
6.32844
 20
-5.42535e-05
 30
0.0
 11
7.0524
 21
-5.42535e-05
 31
0.0
  0
LINE
  8
0
 62
     0
 10
7.0524
 20
-5.42535e-05
 30
0.0
 11
7.0524
 21
2.53093
 31
0.0
  0
LINE
  8
0
 62
     0
 10
7.0524
 20
2.53093
 30
0.0
 11
7.98682
 21
2.53093
 31
0.0
  0
LINE
  8
0
 62
     0
 10
7.98682
 20
2.53093
 30
0.0
 11
7.98682
 21
3.15419
 31
0.0
  0
LINE
  8
0
 62
     0
 10
7.98682
 20
3.15419
 30
0.0
 11
5.37918
 21
3.15419
 31
0.0
  0
LINE
  8
0
 62
     0
 10
0.0291883
 20
3.12537
 30
0.0
 11
2.06108
 21
3.12537
 31
0.0
  0
LINE
  8
0
 62
     0
 10
2.06108
 20
3.12537
 30
0.0
 11
2.06108
 21
2.55974
 31
0.0
  0
LINE
  8
0
 62
     0
 10
2.06108
 20
2.55974
 30
0.0
 11
0.704861
 21
2.55974
 31
0.0
  0
LINE
  8
0
 62
     0
 10
0.704861
 20
2.55974
 30
0.0
 11
0.704861
 21
1.80724
 31
0.0
  0
LINE
  8
0
 62
     0
 10
0.704861
 20
1.80724
 30
0.0
 11
1.86008
 21
1.80724
 31
0.0
  0
LINE
  8
0
 62
     0
 10
1.86008
 20
1.80724
 30
0.0
 11
1.86008
 21
1.2417
 31
0.0
  0
LINE
  8
0
 62
     0
 10
1.86008
 20
1.2417
 30
0.0
 11
0.704861
 21
1.2417
 31
0.0
  0
LINE
  8
0
 62
     0
 10
0.704861
 20
1.2417
 30
0.0
 11
0.704861
 21
0.0291883
 31
0.0
  0
LINE
  8
0
 62
     0
 10
0.704861
 20
0.0291883
 30
0.0
 11
0.0291883
 21
0.0291883
 31
0.0
  0
LINE
  8
0
 62
     0
 10
0.0291883
 20
0.0291883
 30
0.0
 11
0.0291883
 21
3.12537
 31
0.0
  0
LINE
  8
0
 62
     0
 10
2.74029
 20
3.12537
 30
0.0
 11
4.87776
 21
3.12537
 31
0.0
  0
LINE
  8
0
 62
     0
 10
4.87776
 20
3.12537
 30
0.0
 11
4.87776
 21
2.55974
 31
0.0
  0
LINE
  8
0
 62
     0
 10
4.87776
 20
2.55974
 30
0.0
 11
4.14931
 21
2.55974
 31
0.0
  0
LINE
  8
0
 62
     0
 10
4.14931
 20
2.55974
 30
0.0
 11
4.14931
 21
0.594456
 31
0.0
  0
LINE
  8
0
 62
     0
 10
4.14931
 20
0.594456
 30
0.0
 11
4.87776
 21
0.594456
 31
0.0
  0
LINE
  8
0
 62
     0
 10
4.87776
 20
0.594456
 30
0.0
 11
4.87776
 21
0.0291883
 31
0.0
  0
LINE
  8
0
 62
     0
 10
4.87776
 20
0.0291883
 30
0.0
 11
2.74029
 21
0.0291883
 31
0.0
  0
LINE
  8
0
 62
     0
 10
2.74029
 20
0.0291883
 30
0.0
 11
2.74029
 21
0.594456
 31
0.0
  0
LINE
  8
0
 62
     0
 10
2.74029
 20
0.594456
 30
0.0
 11
3.46875
 21
0.594456
 31
0.0
  0
LINE
  8
0
 62
     0
 10
3.46875
 20
0.594456
 30
0.0
 11
3.46875
 21
2.55974
 31
0.0
  0
LINE
  8
0
 62
     0
 10
3.46875
 20
2.55974
 30
0.0
 11
2.74029
 21
2.55974
 31
0.0
  0
LINE
  8
0
 62
     0
 10
2.74029
 20
2.55974
 30
0.0
 11
2.74029
 21
3.12537
 31
0.0
  0
LINE
  8
0
 62
     0
 10
5.40831
 20
3.12537
 30
0.0
 11
7.95801
 21
3.12537
 31
0.0
  0
LINE
  8
0
 62
     0
 10
7.95801
 20
3.12537
 30
0.0
 11
7.95801
 21
2.55974
 31
0.0
  0
LINE
  8
0
 62
     0
 10
7.95801
 20
2.55974
 30
0.0
 11
7.02328
 21
2.55974
 31
0.0
  0
LINE
  8
0
 62
     0
 10
7.02328
 20
2.55974
 30
0.0
 11
7.02328
 21
0.0291883
 31
0.0
  0
LINE
  8
0
 62
     0
 10
7.02328
 20
0.0291883
 30
0.0
 11
6.34272
 21
0.0291883
 31
0.0
  0
LINE
  8
0
 62
     0
 10
6.34272
 20
0.0291883
 30
0.0
 11
6.34272
 21
2.55974
 31
0.0
  0
LINE
  8
0
 62
     0
 10
6.34272
 20
2.55974
 30
0.0
 11
5.40831
 21
2.55974
 31
0.0
  0
LINE
  8
0
 62
     0
 10
5.40831
 20
2.55974
 30
0.0
 11
5.40831
 21
3.12537
 31
0.0
  0
ENDSEC
  0
EOF
