<?xml version="1.0" encoding="UTF-8" standalone="no"?>
<!-- Created with Inkscape (http://www.inkscape.org/) -->

<svg
   xmlns:dc="http://purl.org/dc/elements/1.1/"
   xmlns:cc="http://creativecommons.org/ns#"
   xmlns:rdf="http://www.w3.org/1999/02/22-rdf-syntax-ns#"
   xmlns:svg="http://www.w3.org/2000/svg"
   xmlns="http://www.w3.org/2000/svg"
   xmlns:sodipodi="http://sodipodi.sourceforge.net/DTD/sodipodi-0.dtd"
   xmlns:inkscape="http://www.inkscape.org/namespaces/inkscape"
   width="715.1875"
   height="281.46875"
   id="svg2"
   inkscape:label="Pozadí"
   version="1.1"
   inkscape:version="0.48.4 r9939"
   sodipodi:docname="Nový dokument 1">
  <defs
     id="defs3" />
  <sodipodi:namedview
     id="base"
     pagecolor="#ffffff"
     bordercolor="#666666"
     borderopacity="1.0"
     inkscape:pageopacity="0.0"
     inkscape:pageshadow="2"
     inkscape:zoom="0.7"
     inkscape:cx="393.37215"
     inkscape:cy="35.698596"
     inkscape:document-units="px"
     inkscape:current-layer="layer1"
     showgrid="false"
     fit-margin-top="0"
     fit-margin-left="0"
     fit-margin-right="0"
     fit-margin-bottom="0"
     inkscape:window-width="1302"
     inkscape:window-height="744"
     inkscape:window-x="64"
     inkscape:window-y="0"
     inkscape:window-maximized="1" />
  <metadata
     id="metadata6">
    <rdf:RDF>
      <cc:Work
         rdf:about="">
        <dc:format>image/svg+xml</dc:format>
        <dc:type
           rdf:resource="http://purl.org/dc/dcmitype/StillImage" />
        <dc:title></dc:title>
      </cc:Work>
    </rdf:RDF>
  </metadata>
  <g
     inkscape:label="Vrstva 1"
     inkscape:groupmode="layer"
     id="layer1"
     transform="translate(-21.5,-105.3125)">
    <path
       style="font-size:430.1741333px;font-style:normal;font-variant:normal;font-weight:bold;font-stretch:normal;text-indent:0;text-align:start;text-decoration:none;line-height:125%;letter-spacing:0px;word-spacing:0px;text-transform:none;direction:ltr;block-progression:tb;writing-mode:lr-tb;text-anchor:start;baseline-shift:baseline;color:#000000;fill:#000000;fill-opacity:1;stroke:none;stroke-width:1;marker:none;visibility:visible;display:inline;overflow:visible;enable-background:accumulate;font-family:Source Code Pro;-inkscape-font-specification:Source Code Pro Bold"
       d="m 21.5,105.3125 0,0.5 0,280.46875 0.5,0 0,0.5 63.21875,0 0.5,0 0,-0.5 0,-108.34375 103.1875,0 0.5,0 0,-0.5 0,-53.34375 0,-0.5 -0.5,0 -103.1875,0 0,-63.9375 121.25,0 0.5,0 0,-0.5 0,-53.34375 0,-0.5 -0.5,0 -184.96875,0 -0.5,0 z m 243.3125,0 0,0.5 0,53.34375 0,0.5 0.5,0 64.875,0 0,172.78125 -64.875,0 -0.5,0 0,0.5 0,53.34375 0.5,0 0,0.5 194.4375,0 0.5,0 0,-0.5 0,-53.34375 0,-0.5 -0.5,0 -64.90625,0 0,-172.78125 64.90625,0 0.5,0 0,-0.5 0,-53.34375 0,-0.5 -0.5,0 -194.4375,0 -0.5,0 z m 239.4375,0 0,0.5 0,53.34375 0,0.5 0.5,0 83.375,0 0,226.625 0.5,0 0,0.5 63.65625,0 0.5,0 0,-0.5 0,-226.625 83.40625,0 0.5,0 0,-0.5 0,-53.34375 0,-0.5 -0.5,0 -231.4375,0 -0.5,0 z m -481.75,1 183.96875,0 0,52.34375 -121.25,0 -0.5,0 0,0.5 0,64.9375 0,0.5 0.5,0 103.1875,0 0,52.34375 -103.1875,0 -0.5,0 0,0.5 0,108.34375 -62.21875,0 0,-279.46875 z m 243.3125,0 193.4375,0 0,52.34375 -64.90625,0 -0.5,0 0,0.5 0,173.78125 0,0.5 0.5,0 64.90625,0 0,52.34375 -193.4375,0 0,-52.34375 64.875,0 0.5,0 0,-0.5 0,-173.78125 0,-0.5 -0.5,0 -64.875,0 0,-52.34375 z m 239.4375,0 230.4375,0 0,52.34375 -83.40625,0 -0.5,0 0,0.5 0,226.625 -62.65625,0 0,-226.625 0,-0.5 -0.5,0 -83.375,0 0,-52.34375 z"
       id="text10139"
       inkscape:connector-curvature="0" />
  </g>
</svg>
